# xmcd CD database file
# Copyright (C) 1996 Ti Kan
#
# Track frame offsets:
#	150
#	38373
#	69375
#	102327
#	125641
#	151320
#	175678
# Disc length: 2661 seconds
#
# Revision: 1
# Processed by: cddbd v1.4PL0 Copyright (c) Steve Scherf et al.
# Submitted via: CDCOPY 4.744
#
DISCID=4f0a6307
DTITLE=Trespass - In Haze Of Time
DYEAR=1900
DGENRE=
TTITLE0=Creatures of the night
TTITLE1=In haze of Time
TTITLE2=Gate 15
TTITLE3=City lights
TTITLE4=Orpheus Suite
TTITLE5=Troya
TTITLE6=The mad house blues
EXTD=
EXTT0=
EXTT1=
EXTT2=
EXTT3=
EXTT4=
EXTT5=
EXTT6=
PLAYORDER=
